<svg width="48" height="48" viewBox="0 0 48 48" fill="none" xmlns="http://www.w3.org/2000/svg">
<rect x="1" y="14" width="46" height="16.0645" rx="4" fill="#F9F9F9" stroke="#5B687E" stroke-width="2"/>
<path d="M8.73401 24.5039V25.7258H9.95595C10.9751 25.7258 11.7889 26.5397 11.7889 27.5588V30.0027H9.95595V31.2246H11.7889V34.8904C11.7889 35.9095 10.9751 36.7233 9.95595 36.7233H8.73401V37.9453H9.95595C10.9537 37.9453 11.8414 37.4486 12.3998 36.7044C12.9583 37.4486 13.846 37.9453 14.8437 37.9453H16.0657V36.7233H14.8437C13.8246 36.7233 13.0108 35.9095 13.0108 34.8904V31.2246H14.8437V30.0027H13.0108V27.5588C13.0108 26.5397 13.8246 25.7258 14.8437 25.7258H16.0657V24.5039H14.8437C13.846 24.5039 12.9583 25.0006 12.3998 25.7448C11.8414 25.0006 10.9537 24.5039 9.95595 24.5039H8.73401Z" fill="#5B687E"/>
</svg>
