<?xml version="1.0" standalone="no"?>
<!DOCTYPE svg PUBLIC "-//W3C//DTD SVG 20010904//EN"
 "http://www.w3.org/TR/2001/REC-SVG-20010904/DTD/svg10.dtd">
<svg version="1.0" xmlns="http://www.w3.org/2000/svg"
 width="168.000000pt" height="94.000000pt" viewBox="0 0 168.000000 94.000000"
 preserveAspectRatio="xMidYMid meet">

<g transform="translate(0.000000,94.000000) scale(0.100000,-0.100000)"
fill="#000000" stroke="none">
<path d="M223 780 c-49 -20 -54 -86 -9 -115 26 -18 68 -12 87 11 16 19 14 74
-3 89 -19 19 -50 25 -75 15z"/>
<path d="M430 715 c-10 -12 -10 -16 1 -20 8 -3 212 -4 454 -3 383 3 440 5 440
18 0 13 -57 15 -441 18 -382 2 -443 0 -454 -13z"/>
<path d="M223 559 c-50 -18 -54 -100 -7 -121 33 -15 75 0 91 31 26 53 -28 111
-84 90z m55 -31 c19 -19 14 -56 -8 -68 -38 -21 -80 22 -60 61 12 21 50 25 68
7z"/>
<path d="M433 492 c-7 -4 -9 -13 -4 -20 6 -9 108 -12 452 -10 387 3 444 5 444
18 0 13 -57 15 -440 17 -242 2 -445 -1 -452 -5z"/>
<path d="M223 330 c-50 -20 -54 -102 -6 -121 35 -13 48 -11 73 9 26 21 30 76
8 97 -19 19 -50 25 -75 15z m55 -32 c19 -19 14 -56 -8 -68 -38 -21 -80 22 -60
61 12 21 50 25 68 7z"/>
<path d="M427 283 c-4 -3 -2 -12 4 -20 9 -10 94 -13 443 -13 237 0 437 4 445
9 43 27 -9 31 -443 31 -243 0 -446 -3 -449 -7z"/>
</g>
</svg>
